<svg xmlns="http://www.w3.org/2000/svg" viewBox="0 0 1200 900" width="1200" height="900" font-family="'Segoe UI', Helvetica, Arial, sans-serif">

  <!-- Background -->
  <rect width="1200" height="900" fill="#F8F9FB"/>

  <!-- Title -->
  <text x="40" y="38" font-size="20" font-weight="700" fill="#1a1a2e">Emma — Enterprise Architecture</text>
  <text x="40" y="56" font-size="12" fill="#6c757d">Agentic RAG · Three-layer squad intelligence · Voice-first domain memory</text>
  <line x1="40" y1="64" x2="1160" y2="64" stroke="#dee2e6" stroke-width="1"/>

  <!-- ══ USERS ROW ══ -->
  <!-- Developer -->
  <circle cx="120" cy="100" r="14" fill="none" stroke="#495057" stroke-width="1.8"/>
  <line x1="120" y1="114" x2="120" y2="148" stroke="#495057" stroke-width="1.8"/>
  <line x1="98" y1="128" x2="142" y2="128" stroke="#495057" stroke-width="1.8"/>
  <line x1="120" y1="148" x2="102" y2="168" stroke="#495057" stroke-width="1.8"/>
  <line x1="120" y1="148" x2="138" y2="168" stroke="#495057" stroke-width="1.8"/>
  <text x="120" y="182" font-size="11" fill="#495057" text-anchor="middle">Developer</text>

  <!-- Product Owner -->
  <circle cx="310" cy="100" r="14" fill="none" stroke="#495057" stroke-width="1.8"/>
  <line x1="310" y1="114" x2="310" y2="148" stroke="#495057" stroke-width="1.8"/>
  <line x1="288" y1="128" x2="332" y2="128" stroke="#495057" stroke-width="1.8"/>
  <line x1="310" y1="148" x2="292" y2="168" stroke="#495057" stroke-width="1.8"/>
  <line x1="310" y1="148" x2="328" y2="168" stroke="#495057" stroke-width="1.8"/>
  <text x="310" y="182" font-size="11" fill="#495057" text-anchor="middle">Product Owner</text>

  <!-- Zoom/Teams — video camera icon -->
  <rect x="495" y="86" width="70" height="52" rx="6" fill="none" stroke="#495057" stroke-width="1.8"/>
  <polygon points="565,92 595,80 595,144 565,132" fill="none" stroke="#495057" stroke-width="1.8"/>
  <text x="530" y="154" font-size="11" fill="#495057" text-anchor="middle">Zoom / Teams</text>

  <!-- New joiner -->
  <circle cx="750" cy="100" r="14" fill="none" stroke="#495057" stroke-width="1.8"/>
  <line x1="750" y1="114" x2="750" y2="148" stroke="#495057" stroke-width="1.8"/>
  <line x1="728" y1="128" x2="772" y2="128" stroke="#495057" stroke-width="1.8"/>
  <line x1="750" y1="148" x2="732" y2="168" stroke="#495057" stroke-width="1.8"/>
  <line x1="750" y1="148" x2="768" y2="168" stroke="#495057" stroke-width="1.8"/>
  <text x="750" y="182" font-size="11" fill="#495057" text-anchor="middle">New joiner</text>

  <!-- Arrows from users to STT -->
  <defs>
    <marker id="arr" viewBox="0 0 10 10" refX="9" refY="5" markerWidth="6" markerHeight="6" orient="auto">
      <path d="M1,1 L9,5 L1,9" fill="none" stroke="#adb5bd" stroke-width="1.5" stroke-linejoin="round"/>
    </marker>
    <marker id="arr-blue" viewBox="0 0 10 10" refX="9" refY="5" markerWidth="6" markerHeight="6" orient="auto">
      <path d="M1,1 L9,5 L1,9" fill="none" stroke="#1971c2" stroke-width="1.5" stroke-linejoin="round"/>
    </marker>
    <marker id="arr-orange" viewBox="0 0 10 10" refX="9" refY="5" markerWidth="6" markerHeight="6" orient="auto">
      <path d="M1,1 L9,5 L1,9" fill="none" stroke="#e67700" stroke-width="1.5" stroke-linejoin="round"/>
    </marker>
    <marker id="arr-green" viewBox="0 0 10 10" refX="9" refY="5" markerWidth="6" markerHeight="6" orient="auto">
      <path d="M1,1 L9,5 L1,9" fill="none" stroke="#087f5b" stroke-width="1.5" stroke-linejoin="round"/>
    </marker>
    <marker id="arr-purple" viewBox="0 0 10 10" refX="9" refY="5" markerWidth="6" markerHeight="6" orient="auto">
      <path d="M1,1 L9,5 L1,9" fill="none" stroke="#5c2d91" stroke-width="1.5" stroke-linejoin="round"/>
    </marker>
  </defs>

  <line x1="120" y1="170" x2="395" y2="230" stroke="#adb5bd" stroke-width="1.2" marker-end="url(#arr)"/>
  <line x1="310" y1="170" x2="420" y2="230" stroke="#adb5bd" stroke-width="1.2" marker-end="url(#arr)"/>
  <line x1="530" y1="138" x2="480" y2="230" stroke="#adb5bd" stroke-width="1.2" marker-end="url(#arr)"/>
  <line x1="750" y1="170" x2="560" y2="230" stroke="#adb5bd" stroke-width="1.2" marker-end="url(#arr)"/>

  <!-- ══ SPEECH RECOGNITION ══ -->
  <rect x="340" y="232" width="280" height="60" rx="6" fill="#c3fae8" stroke="#087f5b" stroke-width="2"/>
  <!-- mic icon -->
  <rect x="356" y="244" width="12" height="20" rx="6" fill="#087f5b"/>
  <path d="M350,260 Q350,272 362,272 Q374,272 374,260" fill="none" stroke="#087f5b" stroke-width="2"/>
  <line x1="362" y1="272" x2="362" y2="280" stroke="#087f5b" stroke-width="2"/>
  <line x1="356" y1="280" x2="368" y2="280" stroke="#087f5b" stroke-width="1.5"/>
  <text x="500" y="258" font-size="13" font-weight="600" fill="#085041" text-anchor="middle">Speech recognition</text>
  <text x="500" y="276" font-size="11" fill="#087f5b" text-anchor="middle">Transcription · Speaker identification</text>

  <!-- STT → Orchestrator -->
  <line x1="480" y1="292" x2="480" y2="322" stroke="#495057" stroke-width="1.8" marker-end="url(#arr)"/>

  <!-- ══ AGENTIC ORCHESTRATOR ══ -->
  <rect x="290" y="324" width="380" height="72" rx="6" fill="#d0bfff" stroke="#5c2d91" stroke-width="2"/>
  <!-- gear icon -->
  <circle cx="314" cy="360" r="14" fill="#eeedfe" stroke="#5c2d91" stroke-width="2"/>
  <circle cx="314" cy="360" r="7" fill="#d0bfff" stroke="#5c2d91" stroke-width="1.5"/>
  <line x1="314" y1="344" x2="314" y2="348" stroke="#5c2d91" stroke-width="3"/>
  <line x1="314" y1="372" x2="314" y2="376" stroke="#5c2d91" stroke-width="3"/>
  <line x1="298" y1="360" x2="302" y2="360" stroke="#5c2d91" stroke-width="3"/>
  <line x1="326" y1="360" x2="330" y2="360" stroke="#5c2d91" stroke-width="3"/>
  <text x="490" y="347" font-size="13" font-weight="600" fill="#3b197a" text-anchor="middle">Agentic orchestrator</text>
  <text x="490" y="365" font-size="11" fill="#5c2d91" text-anchor="middle">Gather context → Reason → Plan → Act → Store</text>
  <text x="490" y="382" font-size="11" fill="#5c2d91" text-anchor="middle">Persistent session checkpoint per squad</text>

  <!-- Orchestrator → LLM Gateway -->
  <line x1="480" y1="396" x2="480" y2="428" stroke="#495057" stroke-width="1.8" marker-end="url(#arr)"/>

  <!-- Orchestrator → Write Intercept (left, dashed) -->
  <path d="M290,360 L180,360 L180,420" fill="none" stroke="#e67700" stroke-width="1.5" stroke-dasharray="5,3" marker-end="url(#arr-orange)"/>
  <text x="220" y="354" font-size="10" fill="#e67700" text-anchor="middle">writes via</text>

  <!-- Orchestrator → Weaviate (right, dashed) -->
  <path d="M670,360 L820,360 L820,440" fill="none" stroke="#1971c2" stroke-width="1.5" stroke-dasharray="5,3" marker-end="url(#arr-blue)"/>
  <text x="748" y="354" font-size="10" fill="#1971c2" text-anchor="middle">retrieves</text>

  <!-- ══ LLM GATEWAY ══ -->
  <rect x="290" y="430" width="380" height="72" rx="6" fill="#eeedfe" stroke="#5c2d91" stroke-width="2"/>
  <!-- cloud icon -->
  <ellipse cx="318" cy="462" rx="16" ry="10" fill="#d0bfff" stroke="#5c2d91" stroke-width="1.5"/>
  <ellipse cx="308" cy="468" rx="12" ry="9" fill="#d0bfff" stroke="#5c2d91" stroke-width="1.5"/>
  <ellipse cx="330" cy="468" rx="14" ry="9" fill="#d0bfff" stroke="#5c2d91" stroke-width="1.5"/>
  <text x="490" y="453" font-size="13" font-weight="600" fill="#3b197a" text-anchor="middle">LLM gateway</text>
  <text x="490" y="471" font-size="11" fill="#5c2d91" text-anchor="middle">Internal approved provider</text>
  <text x="490" y="489" font-size="11" fill="#5c2d91" text-anchor="middle">AWS Bedrock · Azure OpenAI · Fusion SDK</text>

  <!-- LLM → Voice synthesis -->
  <line x1="480" y1="502" x2="480" y2="534" stroke="#087f5b" stroke-width="1.8" marker-end="url(#arr-green)"/>

  <!-- LLM → Tools (right dashed) -->
  <path d="M670,466 L780,466 L780,544" fill="none" stroke="#e67700" stroke-width="1.5" stroke-dasharray="5,3" marker-end="url(#arr-orange)"/>
  <text x="730" y="460" font-size="10" fill="#e67700" text-anchor="middle">acts via</text>

  <!-- ══ WRITE INTERCEPT — funnel ══ -->
  <rect x="100" y="400" width="148" height="82" rx="6" fill="#fff4e6" stroke="#e67700" stroke-width="2"/>
  <!-- funnel shape -->
  <polygon points="116,412 212,412 192,440 148,440" fill="#ffa94d" opacity="0.4"/>
  <polygon points="148,440 192,440 180,458 160,458" fill="#ffa94d" opacity="0.6"/>
  <line x1="160" y1="458" x2="160" y2="468" stroke="#e67700" stroke-width="2.5"/>
  <line x1="168" y1="458" x2="168" y2="468" stroke="#e67700" stroke-width="2.5"/>
  <text x="174" y="444" font-size="12" font-weight="600" fill="#7c4a00" text-anchor="start">Write</text>
  <text x="174" y="459" font-size="12" font-weight="600" fill="#7c4a00" text-anchor="start">intercept</text>
  <text x="174" y="472" font-size="10" fill="#e67700" text-anchor="start">Classify · filter noise</text>

  <!-- Write intercept → Weaviate (down) -->
  <line x1="174" y1="482" x2="174" y2="520" stroke="#e67700" stroke-width="1.5" marker-end="url(#arr-orange)"/>
  <path d="M174,520 L820,520 L820,490" fill="none" stroke="#e67700" stroke-width="1.2" stroke-dasharray="4,3"/>

  <!-- ══ WEAVIATE — cylinder ══ -->
  <ellipse cx="870" cy="442" rx="70" ry="18" fill="#d0ebff" stroke="#1971c2" stroke-width="2"/>
  <rect x="800" y="442" width="140" height="60" fill="#d0ebff" stroke="none"/>
  <line x1="800" y1="442" x2="800" y2="502" stroke="#1971c2" stroke-width="2"/>
  <line x1="940" y1="442" x2="940" y2="502" stroke="#1971c2" stroke-width="2"/>
  <ellipse cx="870" cy="502" rx="70" ry="18" fill="#d0ebff" stroke="#1971c2" stroke-width="2"/>
  <text x="870" y="462" font-size="13" font-weight="600" fill="#0c447c" text-anchor="middle">Weaviate</text>
  <text x="870" y="478" font-size="11" fill="#1971c2" text-anchor="middle">Domain knowledge</text>
  <text x="870" y="494" font-size="11" fill="#1971c2" text-anchor="middle">Conversations · AC · retros</text>

  <!-- Weaviate → LLM (return dashed) -->
  <path d="M800,472 L680,472 L680,466" fill="none" stroke="#1971c2" stroke-width="1.2" stroke-dasharray="4,3" marker-end="url(#arr-blue)"/>

  <!-- ══ VOICE SYNTHESIS — speaker ══ -->
  <rect x="290" y="536" width="380" height="58" rx="6" fill="#c3fae8" stroke="#087f5b" stroke-width="2"/>
  <!-- speaker icon -->
  <polygon points="306,548 306,580 320,580 338,592 338,536 320,548" fill="none" stroke="#087f5b" stroke-width="2"/>
  <path d="M344,550 Q356,564 344,578" fill="none" stroke="#087f5b" stroke-width="2"/>
  <path d="M352,544 Q370,564 352,584" fill="none" stroke="#087f5b" stroke-width="2"/>
  <text x="490" y="558" font-size="13" font-weight="600" fill="#085041" text-anchor="middle">Voice synthesis</text>
  <text x="490" y="576" font-size="11" fill="#087f5b" text-anchor="middle">Cloned voice · real-time output to user</text>

  <!-- ══ AGENTIC TOOLS ROW ══ -->
  <!-- Jira -->
  <rect x="785" y="540" width="120" height="52" rx="6" fill="#e7f5ff" stroke="#1971c2" stroke-width="1.8"/>
  <!-- list icon -->
  <line x1="800" y1="554" x2="820" y2="554" stroke="#1971c2" stroke-width="2"/>
  <line x1="800" y1="562" x2="820" y2="562" stroke="#1971c2" stroke-width="2"/>
  <line x1="800" y1="570" x2="814" y2="570" stroke="#1971c2" stroke-width="2"/>
  <text x="845" y="558" font-size="12" font-weight="600" fill="#0c447c" text-anchor="middle">Jira</text>
  <text x="845" y="574" font-size="11" fill="#1971c2" text-anchor="middle">Write AC back</text>
  <text x="845" y="586" font-size="10" fill="#1971c2" text-anchor="middle">Output not input</text>

  <!-- Email / Teams -->
  <rect x="920" y="540" width="120" height="52" rx="6" fill="#e7f5ff" stroke="#1971c2" stroke-width="1.8"/>
  <rect x="932" y="552" width="28" height="20" rx="2" fill="none" stroke="#1971c2" stroke-width="1.5"/>
  <polyline points="932,552 946,562 960,552" fill="none" stroke="#1971c2" stroke-width="1.5"/>
  <text x="980" y="558" font-size="12" font-weight="600" fill="#0c447c" text-anchor="middle">Email / Teams</text>
  <text x="980" y="574" font-size="11" fill="#1971c2" text-anchor="middle">Escalate to PO</text>

  <!-- Confluence -->
  <rect x="1055" y="540" width="110" height="52" rx="6" fill="#e7f5ff" stroke="#1971c2" stroke-width="1.8"/>
  <rect x="1066" y="550" width="22" height="28" rx="1" fill="none" stroke="#1971c2" stroke-width="1.5"/>
  <line x1="1070" y1="556" x2="1084" y2="556" stroke="#1971c2" stroke-width="1"/>
  <line x1="1070" y1="562" x2="1084" y2="562" stroke="#1971c2" stroke-width="1"/>
  <line x1="1070" y1="568" x2="1080" y2="568" stroke="#1971c2" stroke-width="1"/>
  <text x="1110" y="558" font-size="12" font-weight="600" fill="#0c447c" text-anchor="middle">Confluence</text>
  <text x="1110" y="574" font-size="11" fill="#1971c2" text-anchor="middle">Read / write back</text>

  <!-- ══ THREE LAYER SECTION ══ -->
  <line x1="40" y1="618" x2="1160" y2="618" stroke="#dee2e6" stroke-width="1" stroke-dasharray="6,4"/>
  <text x="40" y="638" font-size="12" font-weight="600" fill="#c92a2a">THREE-LAYER FIRM INTELLIGENCE</text>
  <text x="302" y="638" font-size="11" fill="#868e96">— nightly batch</text>

  <!-- Layer 1 -->
  <rect x="40" y="650" width="220" height="80" rx="6" fill="#E8F8FF" stroke="#1971c2" stroke-width="2"/>
  <rect x="40" y="650" width="72" height="20" rx="4" fill="#4FC3F7"/>
  <text x="76" y="664" font-size="10" font-weight="700" fill="#0D1B4B" text-anchor="middle">LAYER 1</text>
  <text x="150" y="676" font-size="13" font-weight="600" fill="#0D7FA8" text-anchor="middle">Squad Emma × N</text>
  <text x="150" y="694" font-size="11" fill="#0D7FA8" text-anchor="middle">One per scrum team</text>
  <text x="150" y="710" font-size="11" fill="#0D7FA8" text-anchor="middle">Own Weaviate store · voice tools</text>

  <!-- L1 → L2 -->
  <line x1="260" y1="690" x2="310" y2="690" stroke="#868e96" stroke-width="1.8" marker-end="url(#arr)"/>

  <!-- Layer 2 -->
  <rect x="310" y="650" width="260" height="80" rx="6" fill="#F3EEFF" stroke="#7C3AED" stroke-width="2"/>
  <rect x="310" y="650" width="72" height="20" rx="4" fill="#7C3AED"/>
  <text x="346" y="664" font-size="10" font-weight="700" fill="#ffffff" text-anchor="middle">LAYER 2</text>
  <text x="440" y="676" font-size="13" font-weight="600" fill="#5B21B6" text-anchor="middle">LOB Coordinator</text>
  <text x="440" y="694" font-size="11" fill="#5B21B6" text-anchor="middle">Reads all squad stores</text>
  <text x="440" y="710" font-size="11" fill="#5B21B6" text-anchor="middle">Spots duplicates · alerts Product Owners</text>

  <!-- L2 → L3 -->
  <line x1="570" y1="690" x2="620" y2="690" stroke="#868e96" stroke-width="1.8" marker-end="url(#arr)"/>

  <!-- Layer 3 -->
  <rect x="620" y="650" width="260" height="80" rx="6" fill="#E6FFF5" stroke="#00C896" stroke-width="2"/>
  <rect x="620" y="650" width="72" height="20" rx="4" fill="#00C896"/>
  <text x="656" y="664" font-size="10" font-weight="700" fill="#0D1B4B" text-anchor="middle">LAYER 3</text>
  <text x="750" y="676" font-size="13" font-weight="600" fill="#006644" text-anchor="middle">Enterprise Intelligence</text>
  <text x="750" y="694" font-size="11" fill="#006644" text-anchor="middle">Cross-LOB patterns · systemic issues</text>
  <text x="750" y="710" font-size="11" fill="#006644" text-anchor="middle">Alerts MDs · Directors · Leads</text>

  <!-- L2 → PO alert -->
  <line x1="440" y1="730" x2="440" y2="764" stroke="#7C3AED" stroke-width="1.5" stroke-dasharray="4,3" marker-end="url(#arr-purple)"/>
  <rect x="360" y="766" width="160" height="40" rx="6" fill="#F3EEFF" stroke="#7C3AED" stroke-width="1.5"/>
  <text x="440" y="791" font-size="11" fill="#5B21B6" text-anchor="middle">Product Owner alerted</text>

  <!-- L3 → Leadership alert -->
  <line x1="750" y1="730" x2="750" y2="764" stroke="#00C896" stroke-width="1.5" stroke-dasharray="4,3" marker-end="url(#arr-green)"/>
  <rect x="640" y="766" width="220" height="40" rx="6" fill="#E6FFF5" stroke="#00C896" stroke-width="1.5"/>
  <text x="750" y="791" font-size="11" fill="#006644" text-anchor="middle">MDs · Directors · Leads alerted</text>

  <!-- Footer -->
  <rect x="0" y="858" width="1200" height="42" fill="#1E2761"/>
  <text x="600" y="884" font-size="12" fill="#CADCFC" text-anchor="middle">Emma = Agentic RAG  ·  Retrieves → Reasons → Plans → Acts  ·  Not a chatbot. A compounding domain intelligence layer.</text>

</svg>